<svg xmlns="http://www.w3.org/2000/svg" width="129.458" height="135.843" viewBox="0 0 129.458 135.843"><g transform="translate(0 0)"><g transform="translate(23.228)"><g transform="translate(0)"><path d="M52.585,30.438,32.158,50.865A3.064,3.064,0,1,0,36.488,55.2L56.915,34.768a3.064,3.064,0,1,0-4.331-4.331Z" transform="translate(-11.216 11.503)" fill="#fff"/><path d="M49.3,30.335A3.064,3.064,0,0,0,45.047,26L30.258,40.793a3.064,3.064,0,1,0,4.331,4.331Z" transform="translate(-16.825 11.507)" fill="#fff"/><circle cx="5.107" cy="5.107" r="5.107" transform="translate(31.662 103.504)" fill="#fff"/><path d="M98.6,86.6a29.807,29.807,0,0,0-3.064.163V21.112A11.112,11.112,0,0,0,84.425,10H33.112A11.112,11.112,0,0,0,22,21.112V121.45a11.112,11.112,0,0,0,11.112,11.112H73.905A29.619,29.619,0,1,0,98.6,86.6Zm-27.76,19.406H28.128V31.959H89.409V88.072a29.721,29.721,0,0,0-18.568,17.935ZM33.112,16.128H84.425a4.984,4.984,0,0,1,4.984,4.984v4.719H28.128V21.112A4.984,4.984,0,0,1,33.112,16.128Zm0,110.306a4.984,4.984,0,0,1-4.984-4.984v-9.315H69.289a28.332,28.332,0,0,0,1.532,14.3ZM98.6,139.712a23.491,23.491,0,1,1,23.491-23.491A23.491,23.491,0,0,1,98.6,139.712Z" transform="translate(-22 -10)" fill="#fff"/><path d="M81.931,63.793a3.064,3.064,0,0,0-1.164-2.39L68.98,52.027a3.064,3.064,0,0,0-4.964,2.39V66.448L57.541,61.28a3.067,3.067,0,1,0-3.82,4.8l8.763,7.006-8.763,6.945a3.067,3.067,0,0,0,3.82,4.8l6.5-5.168v11.97A3.064,3.064,0,0,0,69,94.025l11.786-9.376a3.064,3.064,0,0,0,0-4.8l-8.6-6.761,8.579-6.823a3.064,3.064,0,0,0,1.164-2.472ZM70.144,85.343V79.215l3.738,3.044Zm0-18.384V60.831l3.738,2.962Z" transform="translate(9.869 33.134)" fill="#fff"/></g></g><g transform="translate(56.827 30.803)"><path d="M494.692,375h-.036a2.787,2.787,0,0,0,0,5.573h.036a2.787,2.787,0,1,0,0-5.573Z" transform="translate(-491.869 -375)" fill="#fff"/></g><g transform="translate(0 116.648)"><path d="M494.692,375h-.036a2.787,2.787,0,0,0,0,5.573h.036a2.787,2.787,0,1,0,0-5.573Z" transform="translate(-491.869 -375)" fill="#fff"/></g></g><path d="M19,4.708a2.942,2.942,0,0,0-.233-3.83,2.9,2.9,0,0,0-3.8-.308L.926,14.7a2.935,2.935,0,0,0,1.263,4.979,2.9,2.9,0,0,0,2.848-.841Z" transform="translate(23.141 105.977) rotate(45)" fill="#fff"/></svg>