<svg xmlns="http://www.w3.org/2000/svg" width="149.746" height="149.746" viewBox="0 0 149.746 149.746"><g transform="translate(49.229 143.897)"><path d="M173.311,492.857a2.923,2.923,0,1,0,.857,2.068A2.946,2.946,0,0,0,173.311,492.857Z" transform="translate(-168.319 -492)" fill="#fff"/></g><g transform="translate(88.085 121.426)"><path d="M316.895,415.17a2.925,2.925,0,0,0-2.925,2.925,9.882,9.882,0,0,1-9.87,9.87,2.925,2.925,0,0,0,0,5.849,15.737,15.737,0,0,0,15.72-15.72A2.925,2.925,0,0,0,316.895,415.17Z" transform="translate(-301.175 -415.17)" fill="#fff"/></g><path d="M125.178,0a24.6,24.6,0,0,0-24.568,24.568v35.1a24.6,24.6,0,0,0,21.643,24.388v25.625H111.727a25.389,25.389,0,0,0-27.19-9.885L74.782,74.873H86.676a1.577,1.577,0,0,1,1.5,1.092,1.581,1.581,0,0,1-1.5,2.07h-2.99a2.925,2.925,0,1,0,0,5.849h2.99a7.431,7.431,0,1,0,0-14.861H70.5a2.925,2.925,0,0,0-2.724,3.991l5.493,14.031H48.958l-2.2-5.035-.831-2.119A2.924,2.924,0,0,0,43.2,78.035H30.486a7.43,7.43,0,0,0,0,14.86h9.693l-4.7,8.148A25.387,25.387,0,0,0,9.2,143.9H2.925a2.925,2.925,0,1,0,0,5.849H25.4a25.431,25.431,0,0,0,25.226-22.471H62.075a2.925,2.925,0,0,0,2.68-4.1L51.516,92.9H75.555l3.537,9.036A25.376,25.376,0,0,0,74.814,143.9H64.438a2.925,2.925,0,1,0,0,5.849H91.01a25.4,25.4,0,0,0,23.813-34.219H135.8a2.925,2.925,0,0,0,0-5.849h-7.7V84.052a24.6,24.6,0,0,0,21.643-24.388v-35.1A24.6,24.6,0,0,0,125.178,0ZM30.486,87.046a1.572,1.572,0,0,1-1.471-1,1.58,1.58,0,0,1,1.471-2.158H41.209l1.24,3.161ZM25.4,143.9a19.546,19.546,0,1,1,7.128-37.74l-9.66,16.732a2.925,2.925,0,0,0,2.533,4.387h9.428a9.888,9.888,0,0,1-9.428,6.946,2.925,2.925,0,1,0,0,5.849,15.743,15.743,0,0,0,15.443-12.8h3.884A19.576,19.576,0,0,1,25.4,143.9Zm5.066-22.471,7.124-12.338a19.548,19.548,0,0,1,7.137,12.338Zm27.143,0H50.621a25.4,25.4,0,0,0-10.085-17.451l5.372-9.3ZM91.01,143.9a19.539,19.539,0,0,1-9.765-36.467l7.042,17.987a2.925,2.925,0,1,0,5.447-2.133L86.69,105.292a19.544,19.544,0,1,1,4.32,38.6ZM143.9,59.664A18.747,18.747,0,0,1,128.1,78.153V65.991L135.9,57.67a2.925,2.925,0,0,0-4.27-4L128.1,57.433V48.024L135.9,39.7a2.925,2.925,0,0,0-4.27-4L128.1,39.467v-5.1a2.925,2.925,0,0,0-5.849,0V47.535l-3.011-3.215a2.925,2.925,0,0,0-4.27,4l7.281,7.773V78.152A18.747,18.747,0,0,1,106.46,59.664v-35.1a18.718,18.718,0,1,1,37.436,0Z" fill="#fff"/><g transform="translate(143.858 109.677)"><path d="M494.832,375h-.038a2.925,2.925,0,0,0,0,5.849h.038a2.925,2.925,0,1,0,0-5.849Z" transform="translate(-491.869 -375)" fill="#fff"/></g><g transform="translate(15.794 15.794)"><path d="M108.059,78.764h-4.853a17.175,17.175,0,1,0-31.25-14.223A12.525,12.525,0,0,0,56.607,83.475a2.925,2.925,0,0,0,2.316,1.138h49.136a2.925,2.925,0,1,0,0-5.849Zm-11.849,0H60.527a6.617,6.617,0,0,1-.678-2.936,6.678,6.678,0,0,1,11.64-4.469,2.925,2.925,0,0,0,5.075-1.6,11.326,11.326,0,1,1,19.646,9Z" transform="translate(-54 -54.001)" fill="#fff"/></g></svg>