<svg xmlns="http://www.w3.org/2000/svg" width="124.044" height="165.334" viewBox="0 0 124.044 165.334"><path d="M29.6,5.7a3.584,3.584,0,0,0-.28-4.636,3.452,3.452,0,0,0-4.56-.373L1.111,24.6a3.579,3.579,0,0,0-1,3.47,3.518,3.518,0,0,0,2.518,2.557A3.457,3.457,0,0,0,6.045,29.6Z" transform="translate(91.906 122.164) rotate(45)" fill="#fff"/><g transform="translate(0 0)"><path d="M90.467,69.738H26.639V35.369a24.549,24.549,0,0,1,49.1,0V50.1h9.82V35.369a34.369,34.369,0,1,0-68.738,0V69.738H11.91A4.91,4.91,0,0,0,7,74.648v68.738a4.91,4.91,0,0,0,4.91,4.91H90.467a4.91,4.91,0,0,0,4.91-4.91V74.648A4.91,4.91,0,0,0,90.467,69.738Zm-4.91,68.738H16.82v-9.82H44.463v-9.82H16.82V79.557H85.557Z" transform="translate(-7 -1)" fill="#fff"/><path d="M4.439-.235c2.452,0,4.439,2.327,4.439,4.983A4.635,4.635,0,0,1,4.439,9.557,4.635,4.635,0,0,1,0,4.748C0,2.092,1.987-.235,4.439-.235Z" transform="translate(32.351 118.099)" fill="#fff"/><path d="M4.439,0C6.891,0,8.878,2.487,8.878,5.143A4.71,4.71,0,0,1,4.2,9.814,4.478,4.478,0,0,1,0,5.143C-.013,2.728,1.987,0,4.439,0Z" transform="translate(68.726 53.215) rotate(-90)" fill="#fff"/></g><g transform="translate(46.989 118.72)"><path d="M496.021,375h-.054a4.1,4.1,0,0,0,0,8.2h.054a4.1,4.1,0,0,0,0-8.2Z" transform="translate(-491.869 -375)" fill="#fff"/></g><g transform="translate(115.794 139.436)"><path d="M496.021,375h-.054a4.1,4.1,0,0,0,0,8.2h.054a4.1,4.1,0,0,0,0-8.2Z" transform="translate(-491.869 -375)" fill="#fff"/></g></svg>